<svg xmlns="http://www.w3.org/2000/svg" width="23.369" height="23.369" viewBox="0 0 23.369 23.369">
  <g id="cart_icon" data-name="cart icon" transform="translate(0 0)">
    <path id="cart_icon-2" data-name="cart icon" d="M7409.011,853.7a2.337,2.337,0,1,0,2.337,2.337,2.334,2.334,0,0,0-2.337-2.337ZM7402,835v2.337h2.337l4.207,8.868-1.577,2.863a2.264,2.264,0,0,0-.293,1.122,2.346,2.346,0,0,0,2.338,2.337h14.022V850.19H7409.5a.289.289,0,0,1-.292-.292l.035-.14,1.052-1.9H7419a2.326,2.326,0,0,0,2.044-1.2l4.183-7.584a1.149,1.149,0,0,0,.14-.561,1.171,1.171,0,0,0-1.168-1.169h-17.281l-1.1-2.337Zm18.7,18.7a2.337,2.337,0,1,0,2.338,2.337,2.334,2.334,0,0,0-2.338-2.337Z" transform="translate(-7402 -835)" fill="#b3b3b3"/>
  </g>
</svg>
