<svg xmlns="http://www.w3.org/2000/svg" width="23.369" height="23.369" viewBox="0 0 23.369 23.369">
  <g id="cart_icon" data-name="cart icon" transform="translate(0 0)">
    <path id="cart_icon-2" data-name="cart icon" d="M7791.012,853.7a2.337,2.337,0,1,0,2.336,2.337,2.334,2.334,0,0,0-2.336-2.337ZM7784,835v2.337h2.336l4.208,8.868-1.578,2.863a2.264,2.264,0,0,0-.292,1.122,2.345,2.345,0,0,0,2.338,2.337h14.021V850.19H7791.5a.289.289,0,0,1-.292-.292l.034-.14,1.053-1.9H7801a2.329,2.329,0,0,0,2.045-1.2l4.182-7.584a1.15,1.15,0,0,0,.141-.561,1.172,1.172,0,0,0-1.168-1.169h-17.282l-1.1-2.337Zm18.7,18.7a2.337,2.337,0,1,0,2.338,2.337,2.334,2.334,0,0,0-2.338-2.337Z" transform="translate(-7784 -835)" fill="#fff"/>
  </g>
</svg>
