<svg xmlns="http://www.w3.org/2000/svg" width="100.5" height="100.5" viewBox="0 0 100.5 100.5">
  <g id="Group_307" data-name="Group 307" transform="translate(-100.666 -5818)">
    <g id="noun_options_258396" transform="translate(93 5810.796)">
      <circle id="Ellipse_13" data-name="Ellipse 13" cx="6.733" cy="6.733" r="6.733" transform="translate(51.182 39.558)" fill="#01b0ff"/>
      <path id="Path_56" data-name="Path 56" d="M89.667,95.192c-6.552,0-11.863,3.683-11.863,8.224,0,.037.008.074.009.112a11.856,11.856,0,0,0,23.709,0c0-.038.008-.074.008-.112C101.529,98.875,96.218,95.192,89.667,95.192Z" transform="translate(-31.752 -39.833)" fill="#01b0ff"/>
      <path id="Path_57" data-name="Path 57" d="M100.05,49.338a8.124,8.124,0,0,0-8.08,7.4H84.9A26.911,26.911,0,0,0,77.31,39.076L82.5,33.882a8.113,8.113,0,1,0-1.019-1.018l-5.2,5.2a26.9,26.9,0,0,0-17.648-7.214V23.4a8.116,8.116,0,1,0-1.44,0v7.456a26.9,26.9,0,0,0-17.649,7.214l-5.2-5.2a8.114,8.114,0,1,0-1.018,1.019l5.194,5.194a26.916,26.916,0,0,0-7.584,17.656H23.861a8.119,8.119,0,1,0,0,1.44h7.054a26.9,26.9,0,0,0,7.223,18.04l-4.811,4.811a8.12,8.12,0,1,0,1.018,1.019l4.8-4.8a26.909,26.909,0,0,0,18.049,7.6v6.672a8.116,8.116,0,1,0,1.44,0V84.837a26.908,26.908,0,0,0,18.049-7.6l4.8,4.8a8.118,8.118,0,1,0,1.019-1.018l-4.812-4.812a26.9,26.9,0,0,0,7.224-18.04h7.054a8.114,8.114,0,1,0,8.079-8.836ZM82.987,22.94a6.676,6.676,0,1,1,0,9.441A6.684,6.684,0,0,1,82.987,22.94ZM32.843,32.382a6.676,6.676,0,1,1,0-9.441A6.684,6.684,0,0,1,32.843,32.382ZM15.782,64.13a6.676,6.676,0,1,1,6.676-6.677A6.684,6.684,0,0,1,15.782,64.13ZM32.843,91.967a6.676,6.676,0,1,1,0-9.442A6.684,6.684,0,0,1,32.843,91.967Zm50.144-9.44a6.676,6.676,0,1,1,0,9.441A6.684,6.684,0,0,1,82.987,82.527ZM51.239,15.32A6.676,6.676,0,1,1,57.915,22,6.684,6.684,0,0,1,51.239,15.32ZM64.591,99.587a6.676,6.676,0,1,1-6.677-6.676A6.685,6.685,0,0,1,64.591,99.587ZM57.915,83.415a25.57,25.57,0,1,1,25.57-25.57A25.6,25.6,0,0,1,57.915,83.415ZM100.049,64.13a6.676,6.676,0,1,1,6.677-6.676A6.683,6.683,0,0,1,100.049,64.13Z" transform="translate(0)" fill="#01b0ff"/>
    </g>
  </g>
</svg>
