<svg id="noun_control_920414" xmlns="http://www.w3.org/2000/svg" width="103.33" height="103.33" viewBox="0 0 103.33 103.33">
  <g id="Group_17" data-name="Group 17">
    <path id="Path_8" data-name="Path 8" d="M51.665,0A51.665,51.665,0,1,0,103.33,51.665,51.7,51.7,0,0,0,51.665,0Zm0,4.305a47.36,47.36,0,1,1-47.36,47.36A47.327,47.327,0,0,1,51.665,4.305ZM40.9,25.833a8.6,8.6,0,0,0-2.153,16.936V64.581H30.138a8.592,8.592,0,0,0-8.611,8.611V77.5H81.8V73.192a8.592,8.592,0,0,0-8.611-8.611V60.276H64.581v4.305H60.276V60.276H51.665v4.305H43.054v-21.8A8.609,8.609,0,0,0,40.9,25.833Z" fill="#01b0ff"/>
  </g>
</svg>
