<svg id="round-email-24px" xmlns="http://www.w3.org/2000/svg" width="31.561" height="31.562" viewBox="0 0 31.561 31.562">
  <path id="Path_9" data-name="Path 9" d="M0,0H31.561V31.561H0Z" fill="none"/>
  <path id="Path_10" data-name="Path 10" d="M25.147,4H4.572A2.525,2.525,0,0,0,2.013,6.484L2,21.391a2.537,2.537,0,0,0,2.572,2.484H25.147a2.537,2.537,0,0,0,2.572-2.484V6.484A2.537,2.537,0,0,0,25.147,4Zm-.514,5.279L15.541,14.77a1.34,1.34,0,0,1-1.363,0L5.086,9.279a1.055,1.055,0,0,1-.514-.894,1.093,1.093,0,0,1,1.672-.894l8.616,5.2,8.616-5.2a1.093,1.093,0,0,1,1.672.894A1.055,1.055,0,0,1,24.632,9.279Z" transform="translate(0.921 1.843)" fill="rgba(0,0,0,0.4)"/>
</svg>
