<svg xmlns="http://www.w3.org/2000/svg" xmlns:xlink="http://www.w3.org/1999/xlink" width="15.931" height="28.068" viewBox="0 0 15.931 28.068">
  <defs>
    <linearGradient id="linear-gradient" x1="0.5" x2="0.5" y2="1" gradientUnits="objectBoundingBox">
      <stop offset="0" stop-color="#fff"/>
      <stop offset="1" stop-color="#b5d1ed"/>
    </linearGradient>
  </defs>
  <path id="facebook" d="M10.34,28.068H5.846a1.363,1.363,0,0,1-1.362-1.362V16.568H1.862A1.363,1.363,0,0,1,.5,15.206V10.862A1.363,1.363,0,0,1,1.862,9.5H4.484V7.325A7.407,7.407,0,0,1,6.443,2.018,7.055,7.055,0,0,1,11.644,0l3.428.006a1.363,1.363,0,0,1,1.359,1.362V5.4A1.363,1.363,0,0,1,15.07,6.762H12.762c-.7,0-.883.141-.921.184-.063.072-.138.275-.138.835V9.5H14.9a1.384,1.384,0,0,1,.674.171,1.366,1.366,0,0,1,.7,1.191l0,4.344a1.363,1.363,0,0,1-1.362,1.361H11.7V26.706a1.363,1.363,0,0,1-1.362,1.362ZM6.13,26.422h3.927V15.831a.91.91,0,0,1,.909-.909h3.658V11.146h-3.66a.91.91,0,0,1-.909-.909V7.782a2.8,2.8,0,0,1,.551-1.923,2.789,2.789,0,0,1,2.155-.741h2.024V1.65l-3.143-.005c-3.4,0-5.513,2.177-5.513,5.68v2.912a.91.91,0,0,1-.909.909H2.146v3.776H5.221a.91.91,0,0,1,.909.909ZM15.069,1.651h0Zm0,0" transform="translate(-0.5)" fill="url(#linear-gradient)"/>
</svg>
