<svg xmlns="http://www.w3.org/2000/svg" width="23.368" height="21.441" viewBox="0 0 23.368 21.441">
  <g id="wishlist_icon" data-name="wishlist icon" transform="translate(-0.001)">
    <path id="wishlist_icon-2" data-name="wishlist icon" d="M9.989,19.911C3.973,14.443,0,10.845,0,6.427A6.364,6.364,0,0,1,6.426,0a7,7,0,0,1,5.259,2.444A7,7,0,0,1,16.942,0a6.365,6.365,0,0,1,6.427,6.427c0,4.417-3.975,8.015-9.988,13.472l-1.7,1.542Zm1.578-1.739.117.117.117-.117c5.561-5.037,9.229-8.366,9.229-11.744a3.994,3.994,0,0,0-4.089-4.089A4.533,4.533,0,0,0,12.784,5.1H10.6A4.567,4.567,0,0,0,6.426,2.338a3.994,3.994,0,0,0-4.09,4.089C2.336,9.805,6.006,13.135,11.567,18.171Z" fill="#fff"/>
  </g>
</svg>
