<svg xmlns="http://www.w3.org/2000/svg" width="75.552" height="75.552" viewBox="0 0 75.552 75.552">
  <g id="_042-Exclamation" data-name="042-Exclamation" transform="translate(0 0)">
    <path id="Path_25119" data-name="Path 25119" d="M38.776,76.552A37.776,37.776,0,1,1,76.552,38.776,37.776,37.776,0,0,1,38.776,76.552Zm0-70.515A32.739,32.739,0,1,0,71.515,38.776,32.739,32.739,0,0,0,38.776,6.037Z" transform="translate(-1 -1)" fill="#01b0ff"/>
    <path id="Path_25120" data-name="Path 25120" d="M17.518,39.739A2.518,2.518,0,0,1,15,37.221V9.518a2.518,2.518,0,1,1,5.037,0v27.7A2.518,2.518,0,0,1,17.518,39.739Z" transform="translate(20.257 8.11)" fill="#01b0ff"/>
    <circle id="Ellipse_18" data-name="Ellipse 18" cx="2.518" cy="2.518" r="2.518" transform="translate(35.257 52.886)" fill="#01b0ff"/>
  </g>
</svg>
