<svg xmlns="http://www.w3.org/2000/svg" width="27.092" height="30" viewBox="0 0 27.092 30">
  <g id="icons8-shopping-bag" transform="translate(-2.875 -1)">
    <path id="Path_1" data-name="Path 1" d="M16.421,1A6.113,6.113,0,0,0,10.3,7.122V8.347H5.458L5.4,8.883,2.952,30.311,2.875,31H29.967l-.077-.689L27.441,8.883l-.057-.536H22.543V7.122A6.113,6.113,0,0,0,16.421,1Zm0,1.224a4.862,4.862,0,0,1,4.9,4.9V8.347h-9.8V7.122A4.862,4.862,0,0,1,16.421,2.224ZM6.568,9.571H10.3v1.4a1.225,1.225,0,1,0,1.224,0v-1.4h9.8v1.4a1.225,1.225,0,1,0,1.224,0v-1.4h3.731l2.315,20.2H4.253Z"/>
  </g>
</svg>
