<svg xmlns="http://www.w3.org/2000/svg" width="128.087" height="126.87" viewBox="0 0 128.087 126.87">
  <g id="noun_lighting_1931633" transform="translate(-2.002 -2)">
    <g id="Group_19" data-name="Group 19" transform="translate(2.002 2)">
      <path id="Path_10" data-name="Path 10" d="M38.29,12A36.275,36.275,0,0,0,10.964,72.147a24.156,24.156,0,0,1,5.978,15.917v12.843a10.674,10.674,0,0,0,5.491,9.332l10.674,5.931a10.617,10.617,0,0,0,10.367,0l10.674-5.931a10.674,10.674,0,0,0,5.491-9.331V88.065a24.156,24.156,0,0,1,5.978-15.917A36.275,36.275,0,0,0,38.29,12ZM41.4,112.438a6.377,6.377,0,0,1-6.221,0l-7.865-4.37H49.266Zm13.236-8.64H21.944a6.37,6.37,0,0,1-.732-2.891V99.529H55.369v1.379a6.37,6.37,0,0,1-.732,2.891Zm.732-8.539H21.212V90.99H55.369Zm7.045-25.924A28.438,28.438,0,0,0,55.4,86.72H21.18a28.438,28.438,0,0,0-7.013-17.384,32.023,32.023,0,1,1,48.231,0Z" transform="translate(-2.002 9.349)" fill="#01b0ff"/>
      <path id="Path_11" data-name="Path 11" d="M13.583,18.048l1.78,3.888a23.609,23.609,0,0,1,3.911-1.39l-1.067-4.133a27.5,27.5,0,0,0-4.624,1.635Z" transform="translate(11.141 14.357)" fill="#01b0ff"/>
      <path id="Path_12" data-name="Path 12" d="M6,40h4.27A23.52,23.52,0,0,1,18.1,22.491L15.25,19.31A27.789,27.789,0,0,0,6,40Z" transform="translate(2.535 17.644)" fill="#01b0ff"/>
      <path id="Path_13" data-name="Path 13" d="M44.135,11.27A25.646,25.646,0,0,1,69.753,36.888a2.135,2.135,0,1,0,4.27,0A29.92,29.92,0,0,0,44.135,7a2.135,2.135,0,1,0,0,4.27Z" transform="translate(43.39 3.674)" fill="#01b0ff"/>
      <path id="Path_14" data-name="Path 14" d="M44.135,16.27A14.961,14.961,0,0,1,59.079,31.214a2.135,2.135,0,0,0,4.27,0A19.235,19.235,0,0,0,44.135,12a2.135,2.135,0,0,0,0,4.27Z" transform="translate(43.39 9.349)" fill="#01b0ff"/>
      <path id="Path_15" data-name="Path 15" d="M44.135,2a2.135,2.135,0,1,0,0,4.27A36.333,36.333,0,0,1,80.427,42.562a2.135,2.135,0,1,0,4.27,0A40.607,40.607,0,0,0,44.135,2Z" transform="translate(43.39 -2)" fill="#01b0ff"/>
      <path id="Path_16" data-name="Path 16" d="M39,25.539A8.539,8.539,0,1,0,47.539,17,8.539,8.539,0,0,0,39,25.539Zm8.539-4.27a4.27,4.27,0,1,1-4.27,4.27A4.27,4.27,0,0,1,47.539,21.27Z" transform="translate(39.986 15.023)" fill="#01b0ff"/>
    </g>
  </g>
</svg>
