<svg xmlns="http://www.w3.org/2000/svg" xmlns:cc="http://creativecommons.org/ns#" xmlns:dc="http://purl.org/dc/elements/1.1/" xmlns:rdf="http://www.w3.org/1999/02/22-rdf-syntax-ns#" version="1.1" viewBox="0 0 100 125" x="0px" y="0px"><path d="m18.373 3.9062c-7.798 0-14.076 5.799-14.076 13.002v66.184c0 7.2029 6.2781 13.002 14.076 13.002h64.035c7.798 0 14.076-5.799 14.076-13.002v-66.184c0-7.2029-6.2781-13.002-14.076-13.002zm32.018 11.188c9.0204 0 16.516 6.5977 16.516 14.973v7.5684a1.7627 1.7627 0 0 1-0.06445 0.49219l-3.4609-0.79297v-7.2676c0-6.2621-5.664-11.447-12.99-11.447s-12.99 5.1852-12.99 11.447v7.2676l-3.4609 0.79297a1.7627 1.7627 0 0 1-0.064456-0.49219v-7.5684c0-8.375 7.4952-14.973 16.516-14.973zm0 21.016 23.035 5.2793v17.58c0 17.93-23.027 25.938-23.027 25.938s-23.043-7.9445-23.043-25.938v-17.58zm2e-3 10.303a6.5237 6.5237 0 0 0-6.5254 6.5234 6.5237 6.5237 0 0 0 3.9902 6.0117v13.514c0 1.1867 1.1326 2.1406 2.5352 2.1406s2.5312-0.95389 2.5312-2.1406v-13.52a6.5237 6.5237 0 0 0 3.9902-6.0059 6.5237 6.5237 0 0 0-6.5215-6.5234z"/><text x="0" y="115" fill="#000000" font-size="5px" font-weight="bold" font-family="'Helvetica Neue', Helvetica, Arial-Unicode, Arial, Sans-serif">Created by Tomi Triyana</text><text x="0" y="120" fill="#000000" font-size="5px" font-weight="bold" font-family="'Helvetica Neue', Helvetica, Arial-Unicode, Arial, Sans-serif">from the Noun Project</text></svg>