<svg xmlns="http://www.w3.org/2000/svg" xmlns:xlink="http://www.w3.org/1999/xlink" version="1.1" x="0px" y="0px" viewBox="0 0 100 125" enable-background="new 0 0 100 100" xml:space="preserve"><path d="M38.349,74.15c-5.092,1.329-8.877,0.921-10.678,0.561c-0.849-0.168-1.67,0.38-1.84,1.225c-0.17,0.847,0.378,1.67,1.225,1.84  c0.998,0.2,2.52,0.414,4.47,0.414c2.087,0,4.665-0.245,7.612-1.014c0.835-0.219,1.335-1.072,1.118-1.907  C40.038,74.434,39.186,73.935,38.349,74.15z"/><path d="M90.867,6.303c-1.315-1.809-2.966-2.679-12.38-2.846c-0.185-0.003-0.349-0.003-0.528-0.006  c-0.068-0.002-0.145-0.006-0.199-0.006c-0.035,0-0.062,0.002-0.095,0.003c-2.29-0.026-4.19,0.012-5.746,0.147  C64.641,3.739,49.333,4.02,17.986,4.562l-2.109,0.037c-2.308,0.041-3.993,1.619-4.585,2.488c-4.302,5.74-4.571,17.304-2.861,22.434  c0.63,1.892,1.509,2.978,2.754,3.34c1.165,0.285,3.146,0.768,5.617,1.368c-0.536,2.912-2.107,7.021-3.639,11.018  c-3.249,8.48-6.317,16.49-3.002,19.915c0.93,0.96,2.217,1.439,3.89,1.439c1.418,0,3.112-0.345,5.099-1.033  c1.3-0.45,2.674-0.852,4.075-1.229v7.024c-1.666,0.655-2.503,1.895-2.753,2.646c-0.053,0.159-0.08,0.326-0.08,0.494v8.678  c0,0.33,0.104,0.652,0.299,0.919c1.328,1.826,5.824,2.759,10.27,2.759c2.586,0,5.156-0.315,7.074-0.955  c1.58-0.527,4.591-1.532,8.037-2.683v4.996c0,0.697,0.462,1.311,1.133,1.503l23.73,6.784c0.142,0.04,0.286,0.06,0.43,0.06  c0.336,0,0.667-0.107,0.941-0.314c0.392-0.296,0.621-0.758,0.621-1.248V53.938c0-0.721-0.492-1.349-1.193-1.519l-23.73-5.771  c-0.465-0.114-0.958-0.006-1.335,0.29c-0.377,0.296-0.597,0.75-0.597,1.229v9.374c-1.898-0.04-3.94-0.016-6.08,0.1l0.005-17.863  c7.29,1.705,13.29,3.049,14.23,3.081l25.8-0.187c1.557,0.044,3.008-0.583,4.117-1.79c1.048-1.141,1.656-2.669,1.712-4.304  l0.402-11.625c1.429,0.192,3.405,0.107,4.871-1.348C93.471,21.28,92.57,8.643,90.867,6.303z M13.834,8.905  c0.008-0.012,0.847-1.16,2.098-1.182l2.108-0.036C23.563,7.591,38.622,7.331,52.3,7.085c4.645-0.083,9.115-0.165,13.015-0.237  c-0.261,0.57-0.452,1.219-0.588,1.974c-0.243,1.35-0.43,2.791-0.627,4.316c-0.27,2.073-0.547,4.217-0.988,6.276  c-0.576,2.684-1.27,3.405-4.712,3.035c-3.675-0.397-41.354-5.991-47.215-6.862C11.714,12.968,12.585,10.572,13.834,8.905z   M23.226,61.107c-1.759,0.45-3.479,0.945-5.098,1.507c-2.894,1.003-4.979,1.139-5.72,0.372c-1.929-1.992,1.31-10.447,3.675-16.621  c1.618-4.223,3.152-8.238,3.762-11.399c1.077,0.261,2.207,0.534,3.381,0.817V61.107z M49.198,60.803  c5.412,0.329,9.044,1.076,9.101,1.089c0.108,0.022,0.218,0.034,0.324,0.034c0.723,0,1.372-0.505,1.528-1.24  c0.178-0.845-0.361-1.674-1.205-1.853c-0.241-0.051-4.062-0.839-9.749-1.168v-7.51l20.605,5.011v37.762l-20.605-5.891v-4.861  c7.481-2.497,15.591-5.206,15.591-5.206c0.639-0.213,1.068-0.812,1.067-1.484l-0.013-8.855c-0.001-0.807-0.615-1.48-1.419-1.555  l-9.562-0.883c-0.18-0.015-0.362-0.001-0.537,0.044l-5.128,1.334V60.803z M54.849,67.33l7.872,0.728l0.009,6.305  c-4.4,1.469-21.085,7.041-25.684,8.575c-4.813,1.604-11.81,0.58-13.527-0.442v-7.613c0.171-0.236,0.59-0.642,1.508-0.783  c0.762-0.117,1.325-0.773,1.325-1.545V36.536c3.429,0.824,7.05,1.688,10.519,2.507l-0.008,30.945c0,0.483,0.224,0.94,0.607,1.236  c0.383,0.297,0.882,0.397,1.35,0.276L54.849,67.33z M46.072,60.671v5.713l-6.083,1.582l0.002-7.195  C42.126,60.651,44.173,60.627,46.072,60.671z M82.733,36.469c-0.031,0.89-0.348,1.706-0.891,2.297  c-0.482,0.524-1.078,0.8-1.772,0.779l-25.786,0.188c-1.86-0.133-26.286-5.983-42.226-9.875c-0.223-0.209-0.824-1.218-1.201-3.692  c-0.339-2.226-0.387-4.871-0.13-7.486c6.066,0.901,43.556,6.468,47.336,6.876c0.357,0.039,0.676,0.043,1.007,0.059l-0.181,4.263  c-0.068,1.451,0.309,2.852,1.063,3.946c0.833,1.207,2.071,1.935,3.469,2l11.612,0.011c0.062,0.003,0.124,0.004,0.187,0.004  c2.528,0,4.669-2.422,4.814-5.5l0.443-9.357c0.148-3.154-1.853-5.82-4.535-5.945l-8.941,0.004c0.067-0.503,0.133-1.005,0.197-1.501  c0.11-0.855,0.221-1.672,0.336-2.464c7.359,0.287,13.602,0.142,13.58,0.14c0.618,0.021,1.204,0.34,1.649,0.896  c0.501,0.628,0.76,1.463,0.729,2.353L82.733,36.469z M65.424,25.326c0.109-3.099,2.199-5.526,4.757-5.526  c0.015,0,0.129,0.002,0.143,0.002c1.293,0.046,2.517,0.739,3.356,1.901c0.785,1.087,1.188,2.493,1.137,3.958  c-0.111,3.099-2.201,5.526-4.758,5.526c-0.015,0-0.129-0.002-0.143-0.002c-1.294-0.046-2.517-0.739-3.356-1.901  C65.774,28.197,65.371,26.792,65.424,25.326z M88.928,21.386c-0.654,0.648-1.79,0.573-2.561,0.423l0.25-7.235  c0.058-1.635-0.443-3.202-1.411-4.412c-1.023-1.282-2.438-2.017-4.075-2.07c-0.064,0.002-5.88,0.136-12.866-0.117  c0.44-0.616,1.368-1.038,3.597-1.251c1.741-0.034,3.205-0.064,4.284-0.088c0.671-0.015,1.229-0.028,1.694-0.062  c0.196,0.003,0.389,0.005,0.593,0.009c8.888,0.158,9.477,0.969,9.907,1.56C89.458,9.719,89.866,19.917,88.928,21.386z"/><path d="M70.002,28.772l0.057,0.001c1.229,0,2.28-1.434,2.344-3.197c0.032-0.917-0.216-1.813-0.682-2.458  c-0.234-0.326-0.74-0.875-1.483-0.902h-0.001c-1.286,0-2.336,1.434-2.398,3.196c-0.033,0.917,0.215,1.813,0.681,2.458  C68.753,28.196,69.259,28.746,70.002,28.772z"/><ellipse transform="matrix(0.155 -0.9879 0.9879 0.155 0.0846 27.4066)" cx="16.064" cy="13.654" rx="1.338" ry="1.032"/><ellipse transform="matrix(0.0958 -0.9954 0.9954 0.0958 13.4441 46.2533)" cx="32.18" cy="15.727" rx="1.338" ry="1.032"/><ellipse transform="matrix(0.0602 -0.9982 0.9982 0.0602 30.4176 68.8326)" cx="51.763" cy="18.263" rx="1.338" ry="1.033"/><circle cx="66.578" cy="57.819" r="1.338"/><circle cx="52.095" cy="54.442" r="1.338"/><circle cx="52.15" cy="84.792" r="1.338"/><circle cx="66.376" cy="89.05" r="1.338"/><path d="M29.438,41.843l3.195,0.805c0.128,0.032,0.257,0.048,0.383,0.048c0.699,0,1.336-0.473,1.515-1.182  c0.211-0.837-0.297-1.687-1.134-1.897l-3.195-0.805c-0.842-0.211-1.687,0.297-1.897,1.134S28.602,41.632,29.438,41.843z"/><text x="0" y="115" fill="#000000" font-size="5px" font-weight="bold" font-family="'Helvetica Neue', Helvetica, Arial-Unicode, Arial, Sans-serif">Created by Ben Pelley</text><text x="0" y="120" fill="#000000" font-size="5px" font-weight="bold" font-family="'Helvetica Neue', Helvetica, Arial-Unicode, Arial, Sans-serif">from the Noun Project</text></svg>