<svg xmlns:dc="http://purl.org/dc/elements/1.1/" xmlns:cc="http://creativecommons.org/ns#" xmlns:rdf="http://www.w3.org/1999/02/22-rdf-syntax-ns#" xmlns:svg="http://www.w3.org/2000/svg" xmlns="http://www.w3.org/2000/svg" xmlns:sodipodi="http://sodipodi.sourceforge.net/DTD/sodipodi-0.dtd" xmlns:inkscape="http://www.inkscape.org/namespaces/inkscape" viewBox="0 0 8.4666665 10.58333375" version="1.1" x="0px" y="0px"><g transform="translate(0,-288.53332)"><path style="" d="m 3.2798377,289.1693 v 0.26458 H 2.6705552 a 0.5822097,0.5822097 0 0 0 -0.097658,0.68422 0.5822097,0.5822097 0 0 0 0,0.55189 0.5822097,0.5822097 0 0 0 -0.027384,0.49403 2.3674621,2.3674621 0 1 0 2.1760922,0 0.5822097,0.5822097 0 0 0 -0.026882,-0.49403 0.5822097,0.5822097 0 0 0 0,-0.55189 0.5822097,0.5822097 0 0 0 -0.097658,-0.68422 h -0.609282 v -0.26458 z m -0.4774935,0.52917 h 1.6629327 a 0.31762642,0.31762642 0 0 1 -0.1260739,0.41963 0.31762642,0.31762642 0 0 1 0,0.55189 0.31762642,0.31762642 0 0 1 0.1260739,0.4196 H 2.8023442 a 0.31762642,0.31762642 0 0 1 0.1260739,-0.4196 0.31762642,0.31762642 0 0 1 0,-0.55189 0.31762642,0.31762642 0 0 1 -0.1260739,-0.41963 z m -0.043921,1.65571 h 1.7502717 a 2.1028788,2.1028788 0 1 1 -1.7502717,0 z" fill="#000000" stroke="none"/><path style="" d="m 7.5459234,289.22764 a 0.22458006,0.22458006 0 1 0 -0.4491601,0 0.22458006,0.22458006 0 1 0 0.4491601,0 z" fill="#000000" stroke="none"/><path style="" d="m 6.6200934,291.04115 0.0954,-0.24678 a 1.679785,1.679785 0 0 1 -1.0561,-1.81113 l -0.26176,-0.0385 a 1.9443684,1.9443684 0 0 0 1.2224301,2.09641 z" fill="#000000" stroke="none"/><path style="" d="m 6.8109434,290.54759 0.0954,-0.24677 a 1.1506184,1.1506184 0 0 1 -0.7233901,-1.24059 l -0.2617798,-0.0385 a 1.4152016,1.4152016 0 0 0 0.8897498,1.52586 z" fill="#000000" stroke="none"/><path style="" d="m 6.7065034,289.13722 -0.2617701,-0.0385 a 0.88603498,0.88603498 0 0 0 0.5570601,0.95532 l 0.0954,-0.24678 a 0.6214517,0.6214517 0 0 1 -0.3907101,-0.67004 z" fill="#000000" stroke="none"/><path style="" d="m 3.9845634,290.80245 h -0.70175 v -0.26458 h 0.70175 z" fill="#000000" stroke="none"/><path style="" d="m 3.9845634,290.25055 h -0.70175 v -0.26458 h 0.70175 z" fill="#000000" stroke="none"/><path style="" d="m 3.6336833,292.38235 -0.4810099,0.45405 -0.57183,-0.53977 0.18162,-0.19241 0.39021,0.36834 0.4810099,-0.45405 0.4810202,0.45405 0.3902099,-0.36834 0.18162,0.19241 -0.5718299,0.53977 z" fill="#000000" stroke="none"/><path style="" d="m 3.0431834,296.23511 a 0.97528399,0.97528399 0 0 1 1.1809999,0 0.97528399,0.97528399 0 0 1 1.0911001,-0.45194 0.97528399,0.97528399 0 0 1 1.03142,-0.84181 l -0.0176,0.264 a 0.71070071,0.71070071 0 0 0 -0.7564898,0.75649 0.13229168,0.13229168 0 0 1 -0.1906601,0.1274 0.71070071,0.71070071 0 0 0 -0.98841,0.40941 0.13229168,0.13229168 0 0 1 -0.2249001,0.0447 0.71070071,0.71070071 0 0 0 -1.0698399,0 0.13229168,0.13229168 0 0 1 -0.2249,-0.0447 0.71070071,0.71070071 0 0 0 -0.9884,-0.40941 0.13229168,0.13229168 0 0 1 -0.19066,-0.1274 0.71070071,0.71070071 0 0 0 -0.75650013,-0.75649 l -0.0176,-0.264 a 0.97528399,0.97528399 0 0 1 1.03141003,0.84181 0.97528399,0.97528399 0 0 1 1.0911,0.45194 z" fill="#000000" stroke="none"/></g><text x="0" y="23.466667" fill="#000000" font-size="5px" font-weight="bold" font-family="'Helvetica Neue', Helvetica, Arial-Unicode, Arial, Sans-serif">Created by Pham Duy Phuong Hung</text><text x="0" y="28.466667" fill="#000000" font-size="5px" font-weight="bold" font-family="'Helvetica Neue', Helvetica, Arial-Unicode, Arial, Sans-serif">from the Noun Project</text></svg>