<svg xmlns:dc="http://purl.org/dc/elements/1.1/" xmlns:cc="http://creativecommons.org/ns#" xmlns:rdf="http://www.w3.org/1999/02/22-rdf-syntax-ns#" xmlns:svg="http://www.w3.org/2000/svg" xmlns="http://www.w3.org/2000/svg" xmlns:sodipodi="http://sodipodi.sourceforge.net/DTD/sodipodi-0.dtd" xmlns:inkscape="http://www.inkscape.org/namespaces/inkscape" viewBox="0 0 8.4666665 10.58333375" version="1.1" x="0px" y="0px"><g transform="translate(0,-288.53332)"><path style="" d="m 2.7023114,293.52492 a 0.60631803,0.60631803 0 0 0 -0.309536,1.11673 v 0.92501 a 0.32699259,0.32699259 0 0 0 0.653706,0 v -0.92501 a 0.60631803,0.60631803 0 0 0 -0.34417,-1.11673 z m 0.00317,0.26459 a 0.34173467,0.34173467 0 0 1 0.076465,0.67749 v 1.09966 a 0.06241,0.06241 0 0 1 -0.1245394,0 V 294.467 a 0.34173467,0.34173467 0 0 1 0.048074,-0.67749 z" fill="#000000" stroke="none"/><path style="" d="m 2.6759589,289.78406 a 1.48909,1.48909 0 0 0 -1.4453923,1.48828 V 294.96 a 1.48909,1.48909 0 0 0 2.9781236,0 v -1.67021 h 1.9440789 a 0.66145834,0.66145834 0 0 0 0.6614584,-0.66146 v -0.20722 A 0.66145834,0.66145834 0 0 0 6.1527691,291.75965 H 4.2086902 v -0.48731 a 1.48909,1.48909 0 0 0 -1.5327313,-1.48828 z m 0.00661,0.26511 a 1.2245054,1.2245054 0 0 1 1.2614275,1.22317 v 0.48731 H 3.1481872 a 0.66145834,0.66145834 0 0 0 -0.6614583,0.66146 v 0.20722 a 0.66145834,0.66145834 0 0 0 0.6614583,0.66146 H 3.944001 V 294.96 a 1.2245054,1.2245054 0 0 1 -2.4489569,0 v -3.68766 a 1.2245054,1.2245054 0 0 1 1.1875294,-1.22317 z m 0.4656137,1.97506 h 3.0044761 a 0.39687498,0.39687498 0 0 1 0.396875,0.39688 v 0.20722 a 0.39687498,0.39687498 0 0 1 -0.396875,0.39687 H 3.1481872 a 0.39687498,0.39687498 0 0 1 -0.396875,-0.39687 v -0.20722 a 0.39687498,0.39687498 0 0 1 0.396875,-0.39688 z" fill="#000000" stroke="none"/><path style="" d="m 7.2361001,289.37628 a 0.22458,0.22458 0 1 0 -0.4491599,0 0.22458,0.22458 0 1 0 0.4491599,0 z" fill="#000000" stroke="none"/><path style="" d="m 6.3102801,291.18979 0.0954,-0.24678 a 1.679785,1.679785 0 0 1 -1.0560899,-1.81113 l -0.26177,-0.0385 a 1.9443684,1.9443684 0 0 0 1.2224401,2.09641 z" fill="#000000" stroke="none"/><path style="" d="M 5.8731501,289.20887 5.61138,289.17037 a 1.4152016,1.4152016 0 0 0 0.8897502,1.52586 l 0.0954,-0.24677 a 1.1506184,1.1506184 0 0 1 -0.7234,-1.24059 z" fill="#000000" stroke="none"/><path style="" d="M 6.7873903,289.9559 A 0.6214517,0.6214517 0 0 1 6.3966801,289.28586 L 6.13491,289.24736 a 0.88603498,0.88603498 0 0 0 0.5570601,0.95532 z" fill="#000000" stroke="none"/></g><text x="0" y="23.466667" fill="#000000" font-size="5px" font-weight="bold" font-family="'Helvetica Neue', Helvetica, Arial-Unicode, Arial, Sans-serif">Created by Pham Duy Phuong Hung</text><text x="0" y="28.466667" fill="#000000" font-size="5px" font-weight="bold" font-family="'Helvetica Neue', Helvetica, Arial-Unicode, Arial, Sans-serif">from the Noun Project</text></svg>