<svg xmlns="http://www.w3.org/2000/svg" viewBox="0 0 64 80" x="0px" y="0px"><title>lighting-wifi-connectivity-light-bulb</title><g><path d="M19,12A16.992,16.992,0,0,0,6.2,40.174,11.315,11.315,0,0,1,9,47.63v6.016a5,5,0,0,0,2.572,4.371l5,2.778a4.973,4.973,0,0,0,4.856,0l5-2.778A5,5,0,0,0,29,53.646V47.63a11.315,11.315,0,0,1,2.8-7.456A16.992,16.992,0,0,0,19,12Zm1.457,47.047a2.987,2.987,0,0,1-2.914,0L13.859,57H24.141ZM26.657,55H11.343A2.984,2.984,0,0,1,11,53.646V53H27v.646A2.984,2.984,0,0,1,26.657,55ZM27,51H11V49H27Zm3.3-12.143A13.321,13.321,0,0,0,27.015,47H10.985A13.321,13.321,0,0,0,7.7,38.857a15,15,0,1,1,22.592,0Z"/><path d="M13.583,17.179,14.417,19a11.059,11.059,0,0,1,1.832-.651l-.5-1.936A12.879,12.879,0,0,0,13.583,17.179Z"/><path d="M6,29H8a11.017,11.017,0,0,1,3.667-8.2l-1.334-1.49A13.017,13.017,0,0,0,6,29Z"/><path d="M43,9A12.013,12.013,0,0,1,55,21a1,1,0,0,0,2,0A14.015,14.015,0,0,0,43,7a1,1,0,0,0,0,2Z"/><path d="M43,14a7.008,7.008,0,0,1,7,7,1,1,0,0,0,2,0,9.01,9.01,0,0,0-9-9,1,1,0,0,0,0,2Z"/><path d="M43,2a1,1,0,0,0,0,2A17.019,17.019,0,0,1,60,21a1,1,0,0,0,2,0A19.021,19.021,0,0,0,43,2Z"/><path d="M39,21a4,4,0,1,0,4-4A4,4,0,0,0,39,21Zm4-2a2,2,0,1,1-2,2A2,2,0,0,1,43,19Z"/></g><text x="0" y="79" fill="#000000" font-size="5px" font-weight="bold" font-family="'Helvetica Neue', Helvetica, Arial-Unicode, Arial, Sans-serif">Created by mynamepong</text><text x="0" y="84" fill="#000000" font-size="5px" font-weight="bold" font-family="'Helvetica Neue', Helvetica, Arial-Unicode, Arial, Sans-serif">from the Noun Project</text></svg>