<svg xmlns="http://www.w3.org/2000/svg" xmlns:xlink="http://www.w3.org/1999/xlink" version="1.1" x="0px" y="0px" viewBox="0 0 64 80" enable-background="new 0 0 64 64" xml:space="preserve"><g><g><path d="M44,10c-0.553,0-1,0.448-1,1s0.447,1,1,1c2.757,0,5,2.243,5,5c0,0.552,0.447,1,1,1s1-0.448,1-1C51,13.14,47.859,10,44,10z    "/><path d="M44,6c-0.553,0-1,0.448-1,1s0.447,1,1,1c4.963,0,9,4.038,9,9c0,0.552,0.447,1,1,1s1-0.448,1-1C55,10.935,50.065,6,44,6z"/><path d="M42,16H12c-1.654,0-3,1.346-3,3v36c0,1.654,1.346,3,3,3h30c1.654,0,3-1.346,3-3V19C45,17.346,43.654,16,42,16z M15,18h8    v0.586L21.586,20h-5.172L15,18.586V18z M12,18h1v1c0,0.265,0.105,0.52,0.293,0.707l2,2C15.48,21.895,15.734,22,16,22h6    c0.265,0,0.52-0.105,0.707-0.293l2-2C24.895,19.52,25,19.265,25,19v-1h17c0.552,0,1,0.449,1,1v5H11v-5C11,18.449,11.449,18,12,18z     M42,56H12c-0.551,0-1-0.448-1-1V26h32v29C43,55.552,42.552,56,42,56z"/><path d="M30,22h2c0.552,0,1-0.448,1-1s-0.448-1-1-1h-2c-0.552,0-1,0.448-1,1S29.448,22,30,22z"/><path d="M36,22h2c0.553,0,1-0.448,1-1s-0.447-1-1-1h-2c-0.553,0-1,0.448-1,1S35.447,22,36,22z"/><path d="M27,28c-7.168,0-13,5.832-13,13s5.832,13,13,13c7.168,0,13-5.832,13-13S34.168,28,27,28z M27,52c-6.065,0-11-4.935-11-11    s4.935-11,11-11s11,4.935,11,11S33.065,52,27,52z"/><path d="M27,32c-4.962,0-9,4.037-9,9s4.038,9,9,9s9-4.037,9-9S31.962,32,27,32z M27,48c-3.86,0-7-3.141-7-7s3.14-7,7-7    s7,3.141,7,7S30.86,48,27,48z"/><path d="M27,36c-0.552,0-1,0.447-1,1s0.448,1,1,1c1.654,0,3,1.346,3,3c0,0.553,0.448,1,1,1s1-0.447,1-1C32,38.243,29.757,36,27,36    z"/></g></g><text x="0" y="79" fill="#000000" font-size="5px" font-weight="bold" font-family="'Helvetica Neue', Helvetica, Arial-Unicode, Arial, Sans-serif">Created by Ralf Schmitzer</text><text x="0" y="84" fill="#000000" font-size="5px" font-weight="bold" font-family="'Helvetica Neue', Helvetica, Arial-Unicode, Arial, Sans-serif">from the Noun Project</text></svg>