<svg xmlns="http://www.w3.org/2000/svg" xmlns:xlink="http://www.w3.org/1999/xlink" version="1.1" x="0px" y="0px" viewBox="0 0 300 375" enable-background="new 0 0 300 300" xml:space="preserve"><path d="M253.2,116.8c-0.4-0.4-0.8-0.8-1.2-1.1c0.2-1.3,0.4-2.6,0.4-4c0-9.3-5.7-17.5-14.1-20.9c-1.1-7.3-5.6-13.5-12.2-16.8  C223.9,63.7,214.8,56,203.9,56c-0.3,0-0.5,0-0.8,0c-1.1-8-6.6-14.9-14.1-17.8C187.1,27.7,178,20,167,20c-7.3,0-14,3.5-18.2,9.2  c-7.6-0.1-14.6,3.6-18.8,9.7c-1.5-0.3-3-0.5-4.6-0.5c-7,0-13.5,3.2-17.7,8.6c-1.2-0.2-2.3-0.3-3.5-0.3c-11.5,0-21,8.6-22.4,19.7  c-9.1,1.6-16.3,8.7-18.2,17.7c-10.3,2.1-18,11.2-18,22.1c0,3.7,0.9,7.3,2.6,10.5c0,0-0.1,0.1-0.1,0.1c-0.9,1.2-1.3,2.7-1,4.1l31,155  c0,0,0,0,0,0c0,0.1,0,0.1,0.1,0.2c0.1,0.2,0.1,0.5,0.2,0.7c0,0.1,0.1,0.2,0.1,0.3c0.1,0.2,0.2,0.4,0.3,0.5c0.1,0.1,0.1,0.2,0.2,0.3  c0.1,0.2,0.2,0.3,0.4,0.4c0.1,0.1,0.2,0.2,0.3,0.3c0.1,0.1,0.3,0.2,0.4,0.3c0.1,0.1,0.2,0.1,0.3,0.2c0.2,0.1,0.3,0.2,0.5,0.3  c0.1,0.1,0.2,0.1,0.3,0.2c0.2,0.1,0.4,0.1,0.6,0.2c0.1,0,0.2,0.1,0.3,0.1c0.3,0.1,0.6,0.1,0.9,0.1c0,0,0,0,0,0h2.6H116h33h33h33  c0,0,0,0,0,0c0,0,0,0,0,0h2.2c2.4,0,4.4-1.7,4.9-4l32.1-155C254.5,119.5,254.1,118,253.2,116.8z M220,143.7l18.7-18.7h2l-1,4.9  L220,149.5V143.7z M220,163.7l16-16l-1.5,7.4L220,169.5V163.7z M220,183.7l10.8-10.8l-1.5,7.4l-9.3,9.3V183.7z M220,203.7l5.7-5.7  l-1.5,7.4l-4.2,4.2V203.7z M220,223.7l0.5-0.5l-0.5,2.6V223.7z M220,129.5V125h4.5L220,129.5z M68.3,93.7c2.8,0,5-2.2,5-5  c0-6.9,5.6-12.5,12.5-12.5c0.2,0,0.4,0,0.6,0c1.5,0.1,2.9-0.4,4-1.5c1-1.1,1.5-2.5,1.4-4c-0.1-0.5-0.1-1-0.1-1.4  c0-6.9,5.6-12.5,12.5-12.5c1.4,0,2.8,0.2,4.1,0.7c2.3,0.8,4.9-0.2,6.1-2.4c2.2-4.1,6.4-6.6,11.1-6.6c1.7,0,3.4,0.3,4.9,1  c1.2,0.5,2.6,0.6,3.8,0.1c1.2-0.5,2.2-1.5,2.8-2.7c2-4.6,6.5-7.6,11.5-7.6c0.6,0,1.3,0.1,2,0.2c2.1,0.4,4.3-0.7,5.3-2.6  c2.2-4.2,6.4-6.8,11.1-6.8c6.8,0,12.3,5.3,12.5,12.2c0.1,2.3,1.7,4.3,4,4.7c5.7,1.2,9.9,6.4,9.9,12.3c0,0.6-0.1,1.3-0.2,2  c-0.3,1.7,0.3,3.5,1.7,4.7c1.3,1.1,3.2,1.5,4.9,0.9c1.4-0.5,2.8-0.7,4.1-0.7c6.6,0,12.1,5.2,12.5,11.8c0.1,2.1,1.5,3.8,3.4,4.5  c5.1,1.7,8.6,6.5,8.6,11.8c0,0.1,0,0.3,0,0.4c0,2.4,1.7,4.4,4,4.9c5.7,1.2,9.9,6.4,9.9,12.3c0,1.1-0.2,2.2-0.4,3.2H215h-33h-33  h-32.4c0,0,0,0,0,0H116H83H58.9c-0.2-0.5-0.4-0.9-0.7-1.3c-1.6-2.2-2.5-4.7-2.5-7.5C55.7,99.3,61.3,93.7,68.3,93.7z M177,212.5  l-23,23v-5.9l23-23V212.5z M177,192.5l-23,23v-5.9l23-23V192.5z M177,172.5l-23,23v-5.9l23-23V172.5z M177,152.5l-23,23v-5.9l23-23  V152.5z M177,132.5l-23,23v-5.9l23-23V132.5z M154,135.5v-5.9l4.7-4.7h5.9L154,135.5z M154,249.7l23-23v5.9l-23,23V249.7z M177,270  h-3.3l3.3-3.3V270z M93.7,270l17.3-17.3v5.8L99.5,270H93.7z M111,238.6l-23,23v-5.9l23-23V238.6z M111,218.5l-23,23v-5.9l23-23  V218.5z M111,198.5l-23,23v-5.9l23-23V198.5z M111,178.5l-23,23v-5.9l23-23V178.5z M111,158.5l-23,23v-5.9l23-23V158.5z M111,138.5  l-23,23v-5.9l23-23V138.5z M88,141.5v-5.9L98.7,125h5.9L88,141.5z M78,213.7l-1.9-9.2c0,0,0-0.1,0-0.1L59.6,125H78V213.7z M121,241  c0-0.3,0-0.6,0-0.8V221v-20v-76h23v43v20v82h-23V241z M154,269.7l23-23v5.9L159.5,270H154V269.7z M187,125h23v145h-23V125z   M100.3,89.2c0-0.6,0-1.3,0-2c0.1-0.7,0.2-1.4,0.4-2.2c0.3-1.5,1-3,1.9-4.4c0.9-1.4,2.1-2.8,3.6-3.9c0.7-0.5,1.5-1.1,2.3-1.5  c0.4-0.2,0.8-0.4,1.3-0.6l0.6-0.3l0.3-0.1l0.2-0.1l0.1,0l0,0l0,0l0.3-0.1l1-0.3c0.2,0,0.3-0.1,0.6-0.1l0.8-0.1  c1.1-0.2,2-0.2,2.9-0.2c1.8,0.1,3.6,0.4,5.2,1.1c1.6,0.6,3,1.5,4.2,2.5c0.6,0.5,1.1,1,1.6,1.5c0.5,0.5,0.9,1.1,1.2,1.6  c0.3,0.6,0.6,1.1,0.9,1.6c0.2,0.5,0.4,1,0.6,1.5c0.1,0.5,0.2,0.9,0.3,1.4c0.1,0.4,0.1,0.8,0.1,1.2c0.1,0.7-0.1,1.3-0.1,1.6  c0,0.4-0.1,0.6-0.1,0.6s-0.2-0.1-0.4-0.4c-0.3-0.2-0.7-0.6-1.2-1c-0.2-0.2-0.5-0.4-0.8-0.6c-0.3-0.2-0.6-0.4-1-0.6  c-0.7-0.4-1.4-0.8-2.2-1.2c-0.8-0.3-1.7-0.6-2.6-0.8c-0.9-0.2-1.8-0.3-2.7-0.4c-0.9-0.1-1.8,0-2.7,0.1c-0.2,0-0.4,0.1-0.7,0.1  c-0.2,0-0.3,0.1-0.5,0.1l-0.2,0c0,0-0.1,0-0.2,0l-0.2,0.1l-0.8,0.2l0,0l0,0l-0.1,0l-0.2,0.1l-0.3,0.1c-0.2,0.1-0.4,0.2-0.6,0.3  c-0.4,0.2-0.8,0.4-1.2,0.6c-0.8,0.5-1.5,0.9-2.2,1.5c-0.7,0.6-1.4,1.2-1.9,1.9c-0.6,0.7-1.1,1.4-1.6,2.2c-0.4,0.8-0.8,1.5-1.1,2.3  c-0.1,0.4-0.3,0.7-0.4,1.1c-0.1,0.3-0.2,0.6-0.3,0.9c-0.2,0.6-0.3,1.2-0.4,1.5c-0.1,0.4-0.1,0.6-0.1,0.6s-0.2-0.1-0.4-0.4  c-0.1-0.1-0.3-0.3-0.5-0.5c-0.2-0.2-0.4-0.4-0.6-0.7c-0.2-0.3-0.4-0.6-0.6-1c-0.2-0.4-0.4-0.8-0.6-1.3c-0.2-0.5-0.3-1-0.4-1.6  C100.4,90.5,100.4,89.9,100.3,89.2z M143.8,60.3c0-0.3-0.1-0.6,0-0.9c0-0.4,0.1-0.8,0.1-1.2c0.1-0.4,0.2-0.9,0.3-1.4  c0.1-0.5,0.3-1,0.6-1.5c0.2-0.5,0.5-1,0.9-1.6c0.3-0.5,0.8-1.1,1.2-1.6c0.5-0.5,1-1.1,1.6-1.5c1.2-1,2.6-1.8,4.2-2.5  c1.6-0.6,3.4-1,5.2-1.1c1.8-0.1,3.7,0.2,5.5,0.8l0.4,0.1l0.1,0l0.2,0.1l0.5,0.2c0.2,0.1,0.3,0.1,0.5,0.2l0.7,0.4  c1,0.5,1.7,1,2.5,1.5c1.4,1.1,2.7,2.5,3.6,3.9c0.9,1.5,1.6,3,1.9,4.4c0.2,0.7,0.3,1.5,0.4,2.2c0,0.7,0.1,1.4,0,2  c-0.1,0.6-0.1,1.2-0.3,1.8c-0.2,0.6-0.3,1.1-0.5,1.6c-0.2,0.5-0.4,0.9-0.6,1.3c-0.2,0.4-0.4,0.7-0.6,1c-0.4,0.6-0.8,1-1,1.3  c-0.3,0.3-0.4,0.4-0.4,0.4s-0.1-0.2-0.1-0.6c-0.1-0.4-0.2-0.9-0.4-1.5c-0.1-0.3-0.2-0.6-0.3-1c-0.1-0.3-0.3-0.7-0.4-1.1  c-0.3-0.7-0.7-1.5-1.1-2.2c-0.5-0.7-1-1.5-1.6-2.2c-0.6-0.7-1.3-1.3-1.9-1.9c-0.7-0.6-1.5-1.1-2.2-1.5c-0.2-0.1-0.4-0.2-0.6-0.3  c-0.2-0.1-0.3-0.1-0.5-0.2l-0.2-0.1c0,0-0.1,0-0.2-0.1l-0.2-0.1l-0.5-0.2l-0.2-0.1l-0.1,0c-0.8-0.2-1.7-0.5-2.5-0.6  c-0.9-0.1-1.8-0.2-2.7-0.1c-0.9,0.1-1.8,0.2-2.7,0.4c-0.9,0.2-1.7,0.5-2.6,0.8c-0.8,0.4-1.6,0.7-2.2,1.2c-0.3,0.2-0.6,0.4-1,0.6  c-0.3,0.2-0.6,0.4-0.8,0.6c-0.5,0.3-0.9,0.8-1.2,1c-0.3,0.2-0.4,0.4-0.4,0.4s0-0.2-0.1-0.6C143.9,60.8,143.8,60.6,143.8,60.3z   M173.7,86.9c0.2-0.5,0.5-1,0.9-1.6c0.3-0.5,0.8-1.1,1.2-1.6c0.5-0.5,1-1.1,1.6-1.5c1.2-1,2.6-1.8,4.2-2.5c1.6-0.6,3.4-1,5.2-1.1  c1.8-0.1,3.7,0.2,5.5,0.8l0.4,0.1l0.1,0l0.2,0.1l0.5,0.2c0.2,0.1,0.3,0.1,0.5,0.2l0.7,0.4c1,0.5,1.7,1,2.5,1.5  c1.4,1.1,2.7,2.5,3.6,3.9c0.9,1.5,1.6,3,1.9,4.4c0.2,0.7,0.3,1.5,0.4,2.2c0,0.7,0.1,1.4,0,2c-0.1,0.6-0.1,1.2-0.3,1.8  c-0.2,0.6-0.3,1.1-0.5,1.6c-0.2,0.5-0.4,0.9-0.6,1.3c-0.2,0.4-0.4,0.7-0.6,1c-0.4,0.6-0.8,1-1,1.3c-0.3,0.3-0.4,0.4-0.4,0.4  s-0.1-0.2-0.1-0.6c-0.1-0.4-0.2-0.9-0.4-1.5c-0.1-0.3-0.2-0.6-0.3-1c-0.1-0.3-0.3-0.7-0.4-1.1c-0.3-0.7-0.7-1.5-1.1-2.2  c-0.5-0.7-1-1.5-1.6-2.2c-0.6-0.7-1.3-1.3-1.9-1.9c-0.7-0.6-1.5-1.1-2.2-1.5c-0.2-0.1-0.4-0.2-0.6-0.3c-0.2-0.1-0.3-0.1-0.5-0.2  l-0.2-0.1c0,0-0.1,0-0.2-0.1l-0.2-0.1l-0.5-0.2l-0.2-0.1l-0.1,0c-0.8-0.2-1.7-0.5-2.5-0.6c-0.9-0.1-1.8-0.2-2.7-0.1  c-0.9,0.1-1.8,0.2-2.7,0.4c-0.9,0.2-1.7,0.5-2.6,0.8c-0.8,0.4-1.6,0.7-2.2,1.2c-0.3,0.2-0.6,0.4-1,0.6c-0.3,0.2-0.6,0.4-0.8,0.6  c-0.5,0.3-0.9,0.8-1.2,1c-0.3,0.2-0.4,0.4-0.4,0.4s0-0.2-0.1-0.6c0-0.2,0-0.4-0.1-0.7c0-0.3-0.1-0.6,0-0.9c0-0.4,0.1-0.8,0.1-1.2  c0.1-0.4,0.2-0.9,0.3-1.4C173.3,87.9,173.5,87.4,173.7,86.9z"/><text x="0" y="315" fill="#000000" font-size="5px" font-weight="bold" font-family="'Helvetica Neue', Helvetica, Arial-Unicode, Arial, Sans-serif">Created by Seb Cornelius</text><text x="0" y="320" fill="#000000" font-size="5px" font-weight="bold" font-family="'Helvetica Neue', Helvetica, Arial-Unicode, Arial, Sans-serif">from the Noun Project</text></svg>