<svg xmlns="http://www.w3.org/2000/svg" data-name="Layer 1" viewBox="0 0 64 80" x="0px" y="0px"><title>smart-home-automation-internet-technology-cellphone-smartphone</title><path d="M43,56H10V31.427L32,10.384,54,31.427V33a1,1,0,0,0,2,0V32h7a1,1,0,0,0,.707-1.707L56,22.586V1a1,1,0,0,0-1-1H47a1,1,0,0,0-1,1V12.7L32.682.269a1,1,0,0,0-1.377.012l-31,30A1,1,0,0,0,1,32H8V57a1,1,0,0,0,1,1H43a1,1,0,0,0,0-2ZM32.013,2.379,46.318,15.731A1,1,0,0,0,48,15V2h6V23a1,1,0,0,0,.293.707L60.586,30H55.4L32.691,8.277a1,1,0,0,0-1.382,0L8.6,30H3.471Z"/><path d="M63,36H47a1,1,0,0,0-1,1V63a1,1,0,0,0,1,1H63a1,1,0,0,0,1-1V37A1,1,0,0,0,63,36Zm-1,2v2H48V38Zm0,18H48V42H62ZM48,62V58H62v4Z"/><path d="M48,31a1,1,0,0,0-1-1H17a1,1,0,0,0,0,2H47A1,1,0,0,0,48,31Z"/><path d="M56,59H54a1,1,0,0,0,0,2h2a1,1,0,0,0,0-2Z"/><path d="M30.794,47.034a1,1,0,0,0,.517,1.932,2.64,2.64,0,0,1,1.378,0,1,1,0,0,0,.517-1.932A4.653,4.653,0,0,0,30.794,47.034Z"/><path d="M35.506,45.7a1,1,0,0,0,.426-1.905,9.431,9.431,0,0,0-7.864,0,1,1,0,0,0,.851,1.809,7.429,7.429,0,0,1,6.162,0A.99.99,0,0,0,35.506,45.7Z"/><path d="M38,42.466a1,1,0,0,0,.475-1.88,14.244,14.244,0,0,0-12.948,0,1,1,0,0,0,.948,1.761,12.215,12.215,0,0,1,11.052,0A1,1,0,0,0,38,42.466Z"/><text x="0" y="79" fill="#000000" font-size="5px" font-weight="bold" font-family="'Helvetica Neue', Helvetica, Arial-Unicode, Arial, Sans-serif">Created by KonKapp</text><text x="0" y="84" fill="#000000" font-size="5px" font-weight="bold" font-family="'Helvetica Neue', Helvetica, Arial-Unicode, Arial, Sans-serif">from the Noun Project</text></svg>