<svg xmlns="http://www.w3.org/2000/svg" xmlns:xlink="http://www.w3.org/1999/xlink" xml:space="preserve" version="1.0" style="shape-rendering:geometricPrecision;text-rendering:geometricPrecision;image-rendering:optimizeQuality;" viewBox="0 0 100000 125000" x="0px" y="0px" fill-rule="evenodd" clip-rule="evenodd"><defs><style type="text/css">
   
    .fil0 {fill:black;fill-rule:nonzero}
    .fil1 {fill:black;fill-rule:nonzero}
   
  </style></defs><g><path class="fil0" d="M32314 14345l38429 0c2185,0 3973,1788 3973,3973l0 14768 5379 0c178,-974 1032,-1692 2029,-1692 1136,0 2062,926 2062,2062 0,1136 -926,2062 -2062,2062 -899,0 -1691,-585 -1964,-1432l-5444 0 0 47596c0,2185 -1788,3973 -3973,3973l-38429 0c-2185,0 -3973,-1788 -3973,-3973l0 -17518 -8465 0c-229,913 -1050,1564 -2001,1564 -1136,0 -2062,-926 -2062,-2063 0,-1137 926,-2062 2062,-2062 950,0 1770,650 2001,1562l8465 0 0 -44847c0,-2185 1788,-3973 3973,-3973zm3808 6745l30812 0c1803,0 3284,1481 3284,3285l0 8711 3499 0 0 -14768c0,-1635 -1340,-2974 -2974,-2974l-10144 0c-156,1519 -1243,3068 -2898,3068l-12345 0c-1655,0 -2743,-1549 -2899,-3068l-10143 0c-1635,0 -2974,1339 -2974,2974l0 44847 3497 0 0 -38790c0,-1804 1481,-3285 3285,-3285zm34096 12996l0 36837c0,1806 -1478,3285 -3284,3285l-30812 0c-1806,0 -3285,-1479 -3285,-3285l0 -6759 -3497 0 0 17518c0,1635 1339,2974 2974,2974l38429 0c1634,0 2974,-1339 2974,-2974l0 -47596 -3499 0zm-8858 13818l0 10976c0,275 -224,499 -500,499l-8833 0 0 4285c0,275 -225,500 -500,500l-17691 0 0 6759c0,1259 1027,2286 2286,2286l30812 0c1259,0 2285,-1027 2285,-2286l0 -36837 -11376 0 0 7612 5657 5343c330,310 105,860 -341,860l-1799 3zm-27524 15261l17192 0 0 -3786 -8833 0c-275,0 -499,-224 -499,-499l0 -10976 -1799 0c-470,0 -676,-592 -317,-886l4056 -3832 0 -14676c-959,-193 -1659,-1036 -1659,-2022 0,-1138 926,-2063 2062,-2063 1136,0 2062,926 2062,2063 0,914 -601,1709 -1466,1973l0 13781 6551 -6186c192,-181 492,-179 683,0l4974 4698 0 -7168c0,-275 225,-500 500,-500l11876 0 0 -8711c0,-1259 -1026,-2286 -2285,-2286l-30812 0c-1258,0 -2286,1027 -2286,2286l0 38790zm-15961 -563c-592,0 -1063,472 -1063,1063 0,592 471,1063 1063,1063 590,0 1063,-471 1063,-1063 0,-590 -471,-1063 -1063,-1063zm25895 -35086c236,52 466,43 681,-47 395,-164 651,-549 651,-981 0,-591 -471,-1063 -1063,-1063 -592,0 -1063,471 -1063,1063 0,486 325,909 794,1028zm37307 5754c-46,187 -23,374 50,559 150,416 554,690 997,690 590,0 1063,-471 1063,-1063 0,-590 -471,-1063 -1063,-1063 -519,0 -959,367 -1047,877zm-39926 13634l1044 0c275,0 500,225 500,500l0 10976 5590 0 0 -7606c0,-276 224,-500 500,-500l5486 0c275,0 500,224 500,500l0 7606 5590 0 0 -10976c0,-275 224,-500 499,-500l1044 0c-3459,-3267 -6917,-6534 -10377,-9801 -3459,3267 -6918,6534 -10376,9801zm12620 4369l-4487 0 0 7107 4487 0 0 -7107zm-10308 -35929c132,965 807,2069 1893,2069l12345 0c1085,0 1761,-1104 1893,-2069l-16131 0z"/><path class="fil0" d="M64510 16417c1025,0 1855,831 1855,1856 0,1023 -833,1856 -1855,1856 -1022,0 -1856,-834 -1856,-1856 0,-1022 834,-1856 1856,-1856zm0 1000c-474,0 -856,382 -856,856 0,476 380,856 856,856 475,0 856,-381 856,-856 0,-474 -382,-856 -856,-856z"/><path class="fil0" d="M36175 78757c-657,0 -657,-1000 0,-1000l6031 0c657,0 657,1000 0,1000l-6031 0z"/><path class="fil0" d="M36175 80647c-657,0 -657,-999 0,-999l6031 0c657,0 657,999 0,999l-6031 0z"/><path class="fil1" d="M60520 81008c-657,0 -657,-999 0,-999l5595 0 0 -1658 -5595 0c-512,0 -688,-685 -244,-934l1255 -840c506,-337 1057,365 620,775l4464 0c275,0 499,225 499,500l0 2656c0,275 -224,500 -499,500l-6095 0z"/><path class="fil1" d="M52876 79654c0,-657 999,-657 999,0l0 1434c0,275 -224,500 -499,500l-3752 0c-275,0 -499,-225 -499,-500l0 -1434c0,-657 999,-657 999,0l0 934 2752 0 0 -934z"/><path class="fil1" d="M49304 78733c-512,407 -1132,-372 -621,-780l2535 -2018c185,-148 445,-142 623,1l2533 2017c511,408 -109,1187 -622,780l-2224 -1772 -2224 1772z"/></g><text x="0" y="100015" fill="#000000" font-size="5px" font-weight="bold" font-family="'Helvetica Neue', Helvetica, Arial-Unicode, Arial, Sans-serif">Created by Ragal Kartidev</text><text x="0" y="100020" fill="#000000" font-size="5px" font-weight="bold" font-family="'Helvetica Neue', Helvetica, Arial-Unicode, Arial, Sans-serif">from the Noun Project</text></svg>