<svg xmlns:dc="http://purl.org/dc/elements/1.1/" xmlns:cc="http://creativecommons.org/ns#" xmlns:rdf="http://www.w3.org/1999/02/22-rdf-syntax-ns#" xmlns:svg="http://www.w3.org/2000/svg" xmlns="http://www.w3.org/2000/svg" xmlns:sodipodi="http://sodipodi.sourceforge.net/DTD/sodipodi-0.dtd" xmlns:inkscape="http://www.inkscape.org/namespaces/inkscape" viewBox="0 0 24 30" version="1.1" x="0px" y="0px"><g transform="translate(0,-1028.3622)"><path style="color:#000000;clip-rule:nonzero;display:inline;overflow:visible;visibility:visible;opacity:1;isolation:auto;mix-blend-mode:normal;color-interpolation:sRGB;color-interpolation-filters:linearRGB;solid-color:#000000;solid-opacity:1;fill:#000000;fill-opacity:1;fill-rule:nonzero;stroke:none;stroke-width:1;stroke-linecap:butt;stroke-linejoin:miter;stroke-miterlimit:4;stroke-dasharray:none;stroke-dashoffset:0;stroke-opacity:1;color-rendering:auto;image-rendering:auto;shape-rendering:auto;text-rendering:auto;enable-background:accumulate" d="M 12 0 C 5.3785053 0 0 5.3785 0 12 C 0 18.6215 5.3785053 24 12 24 C 18.621495 24 24 18.6215 24 12 C 24 5.3785 18.621495 0 12 0 z M 12 1 C 18.081055 1 23 5.919 23 12 C 23 18.0811 18.081055 23 12 23 C 5.9189454 23 1 18.0811 1 12 C 1 5.919 5.9189454 1 12 1 z M 9.5 6 A 2 2 0 0 0 7.5 8 A 2 2 0 0 0 9 9.9335938 L 9 15 L 7 15 C 5.8919904 15 5 15.8919 5 17 L 5 18 L 19 18 L 19 17 C 19 15.8919 18.10801 15 17 15 L 17 14 L 15 14 L 15 15 L 14 15 L 14 14 L 12 14 L 12 15 L 10 15 L 10 9.9355469 A 2 2 0 0 0 11.5 8 A 2 2 0 0 0 9.5 6 z " transform="translate(0,1028.3622)"/></g><text x="0" y="39" fill="#000000" font-size="5px" font-weight="bold" font-family="'Helvetica Neue', Helvetica, Arial-Unicode, Arial, Sans-serif">Created by Dev Patel</text><text x="0" y="44" fill="#000000" font-size="5px" font-weight="bold" font-family="'Helvetica Neue', Helvetica, Arial-Unicode, Arial, Sans-serif">from the Noun Project</text></svg>