<svg id="round-local_phone-24px" xmlns="http://www.w3.org/2000/svg" width="31.561" height="31.562" viewBox="0 0 31.561 31.562">
  <path id="Path_7" data-name="Path 7" d="M0,0H31.561V31.561H0Z" fill="none"/>
  <path id="Path_8" data-name="Path 8" d="M23.539,18.518l-3.216-.367a2.52,2.52,0,0,0-2.076.722L15.918,21.2a19.047,19.047,0,0,1-8.343-8.343l2.342-2.342a2.52,2.52,0,0,0,.722-2.076l-.367-3.19A2.534,2.534,0,0,0,7.753,3.01H5.563A2.512,2.512,0,0,0,3.031,5.631,21.511,21.511,0,0,0,23.147,25.747a2.512,2.512,0,0,0,2.621-2.532v-2.19A2.509,2.509,0,0,0,23.539,18.518Z" transform="translate(1.396 1.388)" fill="rgba(0,0,0,0.4)"/>
</svg>
