<svg xmlns="http://www.w3.org/2000/svg" width="99.967" height="124.54" viewBox="0 0 99.967 124.54">
  <path id="Path_18" data-name="Path 18" d="M145.041,66.367a5.739,5.739,0,0,0-.575-.527,12.365,12.365,0,0,0,.192-1.916A10.81,10.81,0,0,0,137.9,53.913a10.732,10.732,0,0,0-5.844-8.047,10.886,10.886,0,0,0-10.634-8.622h-.383a10.8,10.8,0,0,0-6.754-8.526A10.618,10.618,0,0,0,103.751,20a10.821,10.821,0,0,0-8.718,4.407,10.743,10.743,0,0,0-9.005,4.646,11.088,11.088,0,0,0-2.2-.24,10.714,10.714,0,0,0-8.478,4.119,9.9,9.9,0,0,0-1.677-.144,10.816,10.816,0,0,0-10.73,9.436A10.9,10.9,0,0,0,54.222,50.7a10.8,10.8,0,0,0-7.377,15.615l-.048.048a2.452,2.452,0,0,0-.479,1.964l14.849,74.245h0c0,.048,0,.048.048.1.048.1.048.24.1.335,0,.048.048.1.048.144a1.047,1.047,0,0,0,.144.24c.048.048.048.1.1.144a.374.374,0,0,0,.192.192l.144.144c.048.048.144.1.192.144s.1.048.144.1c.1.048.144.1.239.144.048.048.1.048.144.1.1.048.192.048.287.1.048,0,.1.048.144.048a1.326,1.326,0,0,0,.431.048H127.8a2.409,2.409,0,0,0,2.347-1.916L145.52,68.379A2.517,2.517,0,0,0,145.041,66.367Zm-15.9,12.885L138.1,70.3h.958l-.479,2.347-9.436,9.388Zm0,9.58,7.664-7.664-.719,3.545-6.946,6.9Zm0,9.58,5.173-5.173-.719,3.545-4.455,4.455Zm0,9.58,2.73-2.73-.719,3.545-2.012,2.012Zm0,9.58.24-.239-.24,1.245Zm0-45.122V70.3h2.156ZM56.473,55.3a2.372,2.372,0,0,0,2.4-2.4,5.99,5.99,0,0,1,5.988-5.988h.287a2.419,2.419,0,0,0,1.916-.719,2.555,2.555,0,0,0,.671-1.916,3.393,3.393,0,0,1-.048-.671,5.99,5.99,0,0,1,5.988-5.988,5.465,5.465,0,0,1,1.964.335,2.435,2.435,0,0,0,2.922-1.15,5.977,5.977,0,0,1,5.317-3.161,5.566,5.566,0,0,1,2.347.479,2.4,2.4,0,0,0,1.82.048,2.707,2.707,0,0,0,1.341-1.293,6.018,6.018,0,0,1,5.509-3.64,7.2,7.2,0,0,1,.958.1A2.412,2.412,0,0,0,98.386,28.1a5.981,5.981,0,0,1,11.3,2.587,2.353,2.353,0,0,0,1.916,2.251,6.052,6.052,0,0,1,4.742,5.892,7.2,7.2,0,0,1-.1.958,2.4,2.4,0,0,0,3.161,2.682,5.839,5.839,0,0,1,1.964-.335,6.023,6.023,0,0,1,5.988,5.652,2.432,2.432,0,0,0,1.629,2.155,6.014,6.014,0,0,1,4.119,5.652v.192a2.409,2.409,0,0,0,1.916,2.347,6.052,6.052,0,0,1,4.742,5.892,7.892,7.892,0,0,1-.192,1.533H51.971a2.581,2.581,0,0,0-.335-.623A6.023,6.023,0,0,1,56.473,55.3Zm52.067,56.905L97.524,123.225V120.4l11.017-11.017Zm0-9.58L97.524,113.645v-2.826L108.541,99.8Zm0-9.58L97.524,104.065v-2.826l11.017-11.017Zm0-9.58L97.524,94.485V91.658l11.017-11.017Zm0-9.58L97.524,84.9V82.078l11.017-11.017ZM97.524,75.325V72.5l2.251-2.251H102.6Zm0,54.7,11.017-11.017v2.826L97.524,132.853Zm11.017,9.724H106.96l1.581-1.581Zm-39.9,0,8.287-8.287v2.778l-5.509,5.508Zm8.287-15.041L65.91,135.727V132.9l11.017-11.017Zm0-9.628L65.91,126.1v-2.826l11.017-11.017Zm0-9.58L65.91,116.519v-2.826l11.017-11.017Zm0-9.58L65.91,106.939v-2.826L76.927,93.1Zm0-9.58L65.91,97.359V94.532L76.927,83.515Zm0-9.58L65.91,87.779V84.952L76.927,73.935ZM65.91,78.2V75.372L71.035,70.3h2.826Zm-4.79,34.584-.91-4.407v-.048L52.306,70.3H61.12Zm20.6,13.077V70.3H92.734V139.75H81.717Zm15.807,13.747,11.017-11.017v2.826l-8.383,8.335H97.524ZM113.331,70.3h11.017V139.75H113.331ZM71.8,53.147v-.958a9.91,9.91,0,0,1,.192-1.054,6.261,6.261,0,0,1,.91-2.108,7.033,7.033,0,0,1,1.724-1.868,8.711,8.711,0,0,1,1.1-.719c.192-.1.383-.192.623-.287l.287-.144.144-.048.1-.048h.048l.144-.048.479-.144c.1,0,.144-.048.287-.048l.383-.048a7.13,7.13,0,0,1,3.88.431,7,7,0,0,1,2.012,1.2c.287.24.527.479.766.718a4,4,0,0,1,.575.766c.144.287.287.527.431.766l.287.719c.048.24.1.431.144.671a2.332,2.332,0,0,1,.048.575,3.19,3.19,0,0,1-.048.766.7.7,0,0,1-.048.287.574.574,0,0,1-.192-.192c-.144-.1-.335-.287-.575-.479a2.658,2.658,0,0,0-.383-.287,4.211,4.211,0,0,0-.479-.287c-.335-.192-.671-.383-1.054-.575a9.461,9.461,0,0,0-1.245-.383,12.035,12.035,0,0,0-1.293-.192,5.85,5.85,0,0,0-1.293.048c-.1,0-.192.048-.335.048-.1,0-.144.048-.239.048h-.192l-.1.048-.383.1h-.048l-.1.048-.144.048-.287.144-.575.287a8.159,8.159,0,0,0-1.054.719,5.451,5.451,0,0,0-.91.91,8.471,8.471,0,0,0-.766,1.054,11.51,11.51,0,0,0-.527,1.1c-.048.192-.144.335-.192.527l-.144.431c-.1.287-.144.575-.192.719a1.34,1.34,0,0,0-.048.287.574.574,0,0,1-.192-.192l-.24-.239a2.083,2.083,0,0,1-.287-.335,4.214,4.214,0,0,1-.287-.479c-.1-.192-.192-.383-.287-.623a3.588,3.588,0,0,1-.192-.766A1.981,1.981,0,0,1,71.8,53.147ZM92.638,39.3a1.3,1.3,0,0,1,0-.431c0-.192.048-.383.048-.575.048-.192.1-.431.144-.671a2.258,2.258,0,0,1,.287-.718,4.28,4.28,0,0,1,.431-.766,7.988,7.988,0,0,1,.575-.766,5.446,5.446,0,0,1,.766-.719,8.284,8.284,0,0,1,2.012-1.2,8.548,8.548,0,0,1,2.491-.527,7.181,7.181,0,0,1,2.635.383l.192.048h.048l.1.048.24.1c.1.048.144.048.24.1l.335.192a13.174,13.174,0,0,1,1.2.719,7.928,7.928,0,0,1,1.724,1.868,7.2,7.2,0,0,1,.91,2.108,8.122,8.122,0,0,1,.192,1.054,6.387,6.387,0,0,1,0,.958,5.4,5.4,0,0,1-.144.862c-.1.287-.144.527-.239.766s-.192.431-.287.623a4.212,4.212,0,0,1-.287.479c-.192.287-.383.479-.479.623l-.192.192a.7.7,0,0,1-.048-.287c-.048-.192-.1-.431-.192-.718-.048-.144-.1-.287-.144-.479-.048-.144-.144-.335-.192-.527a10.8,10.8,0,0,0-.527-1.054c-.239-.335-.479-.719-.766-1.054s-.623-.623-.91-.91a6.859,6.859,0,0,0-1.054-.719l-.287-.144c-.1-.048-.144-.048-.24-.1l-.1-.048a.148.148,0,0,1-.1-.048l-.1-.048-.24-.1-.1-.048h-.048a10.862,10.862,0,0,0-1.2-.287,5.85,5.85,0,0,0-1.293-.048,12.033,12.033,0,0,0-1.293.192,12.372,12.372,0,0,0-1.245.383,5.472,5.472,0,0,0-1.054.575,4.212,4.212,0,0,1-.479.287,2.657,2.657,0,0,0-.383.287c-.24.144-.431.383-.575.479a.573.573,0,0,0-.192.192,1.34,1.34,0,0,0-.048-.287C92.686,39.543,92.638,39.447,92.638,39.3ZM106.96,52.045a4.281,4.281,0,0,1,.431-.766,7.986,7.986,0,0,1,.575-.766,5.445,5.445,0,0,1,.766-.719,8.284,8.284,0,0,1,2.012-1.2,8.548,8.548,0,0,1,2.491-.527,7.181,7.181,0,0,1,2.634.383l.192.048h.048l.1.048.24.1c.1.048.144.048.24.1l.335.192a13.172,13.172,0,0,1,1.2.719,7.928,7.928,0,0,1,1.724,1.868,7.2,7.2,0,0,1,.91,2.108,8.12,8.12,0,0,1,.192,1.054,6.387,6.387,0,0,1,0,.958,5.4,5.4,0,0,1-.144.862c-.1.287-.144.527-.239.766s-.192.431-.287.623a4.209,4.209,0,0,1-.287.479c-.192.287-.383.479-.479.623l-.192.192a.7.7,0,0,1-.048-.287c-.048-.192-.1-.431-.192-.718-.048-.144-.1-.287-.144-.479-.048-.144-.144-.335-.192-.527a10.809,10.809,0,0,0-.527-1.054c-.24-.335-.479-.718-.766-1.054s-.623-.623-.91-.91a6.858,6.858,0,0,0-1.054-.718l-.287-.144c-.1-.048-.144-.048-.24-.1l-.1-.048a.148.148,0,0,1-.1-.048l-.1-.048-.24-.1-.1-.048h-.048a10.861,10.861,0,0,0-1.2-.287,5.85,5.85,0,0,0-1.293-.048,12.035,12.035,0,0,0-1.293.192,12.371,12.371,0,0,0-1.245.383,5.471,5.471,0,0,0-1.054.575,4.213,4.213,0,0,1-.479.287,2.656,2.656,0,0,0-.383.287c-.239.144-.431.383-.575.479a.574.574,0,0,0-.192.192,1.34,1.34,0,0,0-.048-.287.935.935,0,0,0-.048-.335,1.3,1.3,0,0,1,0-.431c0-.192.048-.383.048-.575.048-.192.1-.431.144-.671A2.2,2.2,0,0,1,106.96,52.045Z" transform="translate(-45.6 -20)" fill="#01b0ff"/>
</svg>
