<svg xmlns="http://www.w3.org/2000/svg" width="11.572" height="11.572" viewBox="0 0 11.572 11.572">
  <path id="_" data-name="" d="M7.319-11.241a2.741,2.741,0,0,0-.835-2.011,2.741,2.741,0,0,0-2.011-.835,2.741,2.741,0,0,0-2.011.835,2.741,2.741,0,0,0-.835,2.011,2.741,2.741,0,0,0,.835,2.011A2.741,2.741,0,0,0,4.473-8.4a2.741,2.741,0,0,0,2.011-.835A2.741,2.741,0,0,0,7.319-11.241Zm3.253,5.286a.782.782,0,0,1-.241.572.782.782,0,0,1-.572.241.755.755,0,0,1-.572-.241L7.008-7.556a4.351,4.351,0,0,1-2.535.788,4.4,4.4,0,0,1-1.738-.353,4.472,4.472,0,0,1-1.43-.953A4.472,4.472,0,0,1,.353-9.5,4.4,4.4,0,0,1,0-11.241a4.4,4.4,0,0,1,.353-1.738,4.472,4.472,0,0,1,.953-1.43,4.472,4.472,0,0,1,1.43-.953,4.4,4.4,0,0,1,1.738-.353,4.4,4.4,0,0,1,1.738.353,4.472,4.472,0,0,1,1.43.953,4.472,4.472,0,0,1,.953,1.43,4.4,4.4,0,0,1,.353,1.738,4.351,4.351,0,0,1-.788,2.535l2.179,2.179A.778.778,0,0,1,10.572-5.955Z" transform="translate(0.5 16.214)" fill="#383838" stroke="rgba(0,0,0,0)" stroke-width="1" opacity="0.452"/>
</svg>
