<svg xmlns="http://www.w3.org/2000/svg" width="102.149" height="111.786" viewBox="0 0 102.149 111.786">
  <g id="noun_Security_Camera_55012" data-name="noun_Security Camera_55012" transform="translate(-7.449 -3.44)">
    <path id="Path_50" data-name="Path 50" d="M40.864,74.16a28.9,28.9,0,0,1-12.818.673,1.876,1.876,0,1,0-.738,3.679,27.492,27.492,0,0,0,5.366.5,36.207,36.207,0,0,0,9.137-1.217,1.877,1.877,0,0,0-.947-3.632Z" transform="translate(3.678 14.16)" fill="#01b0ff"/>
    <path id="Path_51" data-name="Path 51" d="M107.584,6.877c-1.579-2.172-3.56-3.216-14.861-3.416-.222,0-.419,0-.634-.007-.082,0-.174-.007-.239-.007-.042,0-.074,0-.114,0-2.749-.031-5.03.014-6.9.176C76.1,3.8,57.727,4.136,20.1,4.787l-2.532.044a7.227,7.227,0,0,0-5.5,2.987C6.9,14.708,6.575,28.59,8.628,34.748c.756,2.271,1.811,3.575,3.306,4.009,1.4.342,3.776.922,6.743,1.642-.643,3.5-2.529,8.428-4.368,13.226C10.408,63.8,6.725,73.42,10.7,77.531a6.181,6.181,0,0,0,4.67,1.727,19.23,19.23,0,0,0,6.121-1.24c1.561-.54,3.21-1.023,4.892-1.475v8.432a5.612,5.612,0,0,0-3.3,3.176,1.876,1.876,0,0,0-.1.593V99.161a1.87,1.87,0,0,0,.359,1.1c1.594,2.192,6.991,3.312,12.328,3.312a28.236,28.236,0,0,0,8.492-1.146l9.648-3.221v6a1.877,1.877,0,0,0,1.36,1.8l28.486,8.144a1.9,1.9,0,0,0,.516.072,1.872,1.872,0,0,0,1.875-1.875V64.058a1.875,1.875,0,0,0-1.432-1.823L56.131,55.307a1.876,1.876,0,0,0-2.319,1.823V68.383c-2.278-.048-4.73-.019-7.3.12L46.52,47.06c8.751,2.047,15.953,3.66,17.082,3.7l30.97-.224a6.379,6.379,0,0,0,4.942-2.149,8.021,8.021,0,0,0,2.055-5.167l.483-13.955a6.806,6.806,0,0,0,5.847-1.618C110.71,24.855,109.628,9.686,107.584,6.877ZM15.114,10a3.584,3.584,0,0,1,2.518-1.419l2.53-.043c6.63-.115,24.707-.427,41.126-.723,5.576-.1,10.942-.2,15.623-.284a9.847,9.847,0,0,0-.706,2.37c-.292,1.621-.516,3.35-.753,5.181-.324,2.488-.657,5.062-1.186,7.534-.691,3.222-1.525,4.087-5.656,3.643-4.411-.477-49.641-7.192-56.677-8.237A20.411,20.411,0,0,1,15.114,10ZM26.388,72.664c-2.112.54-4.176,1.134-6.12,1.809-3.474,1.2-5.977,1.367-6.866.447-2.316-2.391,1.573-12.541,4.411-19.952,1.942-5.069,3.784-9.889,4.516-13.683l4.059.981v30.4ZM57.565,72.3a84.345,84.345,0,0,1,10.925,1.307,1.964,1.964,0,0,0,.389.041,1.877,1.877,0,0,0,.388-3.713,85.953,85.953,0,0,0-11.7-1.4V59.517L82.3,65.532v45.33L57.563,103.79V97.955c8.98-3,18.715-6.249,18.715-6.249a1.875,1.875,0,0,0,1.281-1.781l-.016-10.63a1.877,1.877,0,0,0-1.7-1.867l-11.478-1.06a1.943,1.943,0,0,0-.645.053l-6.156,1.6V72.3Zm6.783,7.835,9.45.874.011,7.569C68.527,90.34,48.5,97.028,42.977,98.87c-5.778,1.925-14.177.7-16.238-.531V89.2a2.606,2.606,0,0,1,1.81-.94,1.876,1.876,0,0,0,1.591-1.855V43.168c4.116.989,8.463,2.026,12.627,3.009l-.01,37.146a1.876,1.876,0,0,0,2.349,1.815ZM53.812,72.14V79l-7.3,1.9,0-8.637C49.075,72.116,51.533,72.087,53.812,72.14ZM97.82,43.088a4.277,4.277,0,0,1-1.07,2.757,2.7,2.7,0,0,1-2.127.935l-30.954.226c-2.233-.16-31.554-7.182-50.688-11.854-.268-.251-.989-1.462-1.442-4.432a37.3,37.3,0,0,1-.156-8.986c7.282,1.082,52.285,7.764,56.822,8.254.429.047.811.052,1.209.071L69.2,35.176a7.733,7.733,0,0,0,1.276,4.737,5.331,5.331,0,0,0,4.164,2.4l13.939.013c.074,0,.149,0,.224,0,3.035,0,5.6-2.907,5.779-6.6L95.112,24.5c.178-3.786-2.224-6.986-5.444-7.136l-10.733,0c.08-.6.16-1.206.236-1.8.132-1.026.265-2.007.4-2.958,8.834.345,16.328.17,16.3.168a2.67,2.67,0,0,1,1.979,1.076,4.274,4.274,0,0,1,.875,2.825ZM77.042,29.712c.131-3.72,2.64-6.633,5.71-6.633l.172,0a5.247,5.247,0,0,1,4.029,2.282,7.675,7.675,0,0,1,1.365,4.751c-.133,3.72-2.642,6.633-5.712,6.633l-.172,0a5.245,5.245,0,0,1-4.029-2.282A7.649,7.649,0,0,1,77.042,29.712Zm28.214-4.73a3.525,3.525,0,0,1-3.074.508l.3-8.685a8.005,8.005,0,0,0-1.694-5.3A6.394,6.394,0,0,0,95.9,9.024c-.077,0-7.058.163-15.444-.14.528-.739,1.642-1.246,4.318-1.5,2.09-.041,3.847-.077,5.143-.106.805-.018,1.475-.034,2.033-.074.235,0,.467.006.712.011,10.669.19,11.376,1.163,11.892,1.873C105.893,10.977,106.383,23.219,105.257,24.982Z" transform="translate(0 0)" fill="#01b0ff"/>
    <path id="Path_52" data-name="Path 52" d="M70.436,30.086H70.5c1.475,0,2.737-1.721,2.814-3.838A4.83,4.83,0,0,0,72.5,23.3a2.4,2.4,0,0,0-1.78-1.083h0c-1.544,0-2.8,1.721-2.879,3.836A4.821,4.821,0,0,0,68.657,29,2.4,2.4,0,0,0,70.436,30.086Z" transform="translate(12.102 3.763)" fill="#01b0ff"/>
    <ellipse id="Ellipse_6" data-name="Ellipse 6" cx="1.606" cy="1.239" rx="1.606" ry="1.239" transform="matrix(0.155, -0.988, 0.988, 0.155, 16.317, 17.095)" fill="#01b0ff"/>
    <ellipse id="Ellipse_7" data-name="Ellipse 7" cx="1.606" cy="1.239" rx="1.606" ry="1.239" transform="translate(35.751 19.671) rotate(-84.503)" fill="#01b0ff"/>
    <ellipse id="Ellipse_8" data-name="Ellipse 8" cx="1.606" cy="1.24" rx="1.606" ry="1.24" transform="translate(59.31 22.761) rotate(-86.549)" fill="#01b0ff"/>
    <circle id="Ellipse_9" data-name="Ellipse 9" cx="1.606" cy="1.606" r="1.606" transform="translate(76.821 67.111)" fill="#01b0ff"/>
    <circle id="Ellipse_10" data-name="Ellipse 10" cx="1.606" cy="1.606" r="1.606" transform="translate(59.436 63.057)" fill="#01b0ff"/>
    <circle id="Ellipse_11" data-name="Ellipse 11" cx="1.606" cy="1.606" r="1.606" transform="translate(59.502 99.489)" fill="#01b0ff"/>
    <circle id="Ellipse_12" data-name="Ellipse 12" cx="1.606" cy="1.606" r="1.606" transform="translate(76.579 104.6)" fill="#01b0ff"/>
    <path id="Path_53" data-name="Path 53" d="M29.675,42.46l3.835.966a1.9,1.9,0,0,0,.46.058,1.876,1.876,0,0,0,.457-3.7l-3.835-.966a1.876,1.876,0,0,0-.917,3.638Z" transform="translate(4.17 7.079)" fill="#01b0ff"/>
  </g>
</svg>
