<svg xmlns="http://www.w3.org/2000/svg" xmlns:xlink="http://www.w3.org/1999/xlink" width="28.661" height="23.458" viewBox="0 0 28.661 23.458">
  <defs>
    <linearGradient id="linear-gradient" x1="0.5" x2="0.5" y2="1" gradientUnits="objectBoundingBox">
      <stop offset="0" stop-color="#fff"/>
      <stop offset="1" stop-color="#b5d1ed"/>
    </linearGradient>
  </defs>
  <path id="_043-twitter" data-name="043-twitter" d="M28.661,3.133c-1.8.083-1.764.076-1.967.093L27.761.177S24.428,1.4,23.584,1.623A6.687,6.687,0,0,0,15.708.989,5.454,5.454,0,0,0,13.086,6.6,14.548,14.548,0,0,1,3.661,1.292L2.871.342,2.28,1.427a6.557,6.557,0,0,0-.7,4.414A6.342,6.342,0,0,0,2.2,7.564L1.518,7.3l-.08,1.133a6.047,6.047,0,0,0,1.026,3.595,6.392,6.392,0,0,0,.8.985l-.351-.054.428,1.3a6.313,6.313,0,0,0,3.245,3.76c-1.513.642-2.736,1.052-4.746,1.713L0,20.337l1.7.928a17.824,17.824,0,0,0,5.2,1.891c5.025.788,10.683.146,14.491-3.284,3.208-2.889,4.261-7,4.042-11.276a2.672,2.672,0,0,1,.5-1.74c.711-.95,2.73-3.717,2.734-3.724ZM24.584,5.851a4.352,4.352,0,0,0-.832,2.831c.221,4.314-.953,7.66-3.489,9.943C17.3,21.294,12.522,22.341,7.154,21.5a13,13,0,0,1-2.809-.835,44.535,44.535,0,0,0,5.087-2.091l2.933-1.388-3.238-.207A4.58,4.58,0,0,1,5.49,14.906,5.808,5.808,0,0,0,6.723,14.7l3.089-.86L6.7,13.077a4.639,4.639,0,0,1-2.833-1.971A4.751,4.751,0,0,1,3.25,9.752a7.775,7.775,0,0,0,1.263.2l2.883.285L5.112,8.457A4.808,4.808,0,0,1,3.291,3.391,16.708,16.708,0,0,0,15.064,8.459a9.943,9.943,0,0,0-.172-1.424,3.856,3.856,0,0,1,1.695-4.616,5.016,5.016,0,0,1,5.917.49,1.5,1.5,0,0,0,1.379.369,11.606,11.606,0,0,0,1.136-.345L24.295,5h.925l-.635.85Zm0,0" transform="translate(0)" fill="url(#linear-gradient)"/>
</svg>
