<svg xmlns="http://www.w3.org/2000/svg" width="23.369" height="21.441" viewBox="0 0 23.369 21.441">
  <g id="wishlist_icon" data-name="wishlist icon" transform="translate(0 0)">
    <path id="wishlist_icon-2" data-name="wishlist icon" d="M9.988,19.909C3.974,14.442,0,10.842,0,6.425A6.364,6.364,0,0,1,6.426,0a7,7,0,0,1,5.259,2.441A7,7,0,0,1,16.942,0a6.363,6.363,0,0,1,6.427,6.425c0,4.417-3.973,8.017-9.99,13.473l-1.694,1.544Zm1.579-1.74.117.118.118-.118c5.561-5.037,9.229-8.366,9.229-11.744a3.994,3.994,0,0,0-4.089-4.089,4.538,4.538,0,0,0-4.159,2.757H10.6A4.569,4.569,0,0,0,6.426,2.336,3.994,3.994,0,0,0,2.337,6.425C2.337,9.8,6.006,13.132,11.567,18.169Z" fill="#dadada"/>
  </g>
</svg>
